<svg id="visual" viewBox="0 0 900 600" width="900" height="600" xmlns="http://www.w3.org/2000/svg" xmlns:xlink="http://www.w3.org/1999/xlink" version="1.1"><path d="M0 508L21.5 503.5C43 499 86 490 128.8 475.3C171.7 460.7 214.3 440.3 257.2 445.7C300 451 343 482 385.8 499.7C428.7 517.3 471.3 521.7 514.2 515C557 508.3 600 490.7 642.8 482.2C685.7 473.7 728.3 474.3 771.2 473.5C814 472.7 857 470.3 878.5 469.2L900 468L900 601L878.5 601C857 601 814 601 771.2 601C728.3 601 685.7 601 642.8 601C600 601 557 601 514.2 601C471.3 601 428.7 601 385.8 601C343 601 300 601 257.2 601C214.3 601 171.7 601 128.8 601C86 601 43 601 21.5 601L0 601Z" fill="#0866ff" stroke-linecap="round" stroke-linejoin="miter"></path></svg>